<?xml version="1.0" encoding="UTF-8" standalone="no"?>
<!-- Created with Inkscape (http://www.inkscape.org/) -->

<svg
   viewBox="0 0 178.83775 178.83775"
   version="1.1"
   id="svg53814"
   xml:space="preserve"
   inkscape:version="1.2 (dc2aedaf03, 2022-05-15)"
   sodipodi:docname="dragon.svg"
   xmlns:inkscape="http://www.inkscape.org/namespaces/inkscape"
   xmlns:sodipodi="http://sodipodi.sourceforge.net/DTD/sodipodi-0.dtd"
   xmlns:xlink="http://www.w3.org/1999/xlink"
   xmlns="http://www.w3.org/2000/svg"
   xmlns:svg="http://www.w3.org/2000/svg"><sodipodi:namedview
     id="namedview53816"
     pagecolor="#505050"
     bordercolor="#eeeeee"
     borderopacity="1"
     inkscape:showpageshadow="0"
     inkscape:pageopacity="0"
     inkscape:pagecheckerboard="0"
     inkscape:deskcolor="#505050"
     inkscape:document-units="mm"
     showgrid="false"
     inkscape:zoom="0.73673541"
     inkscape:cx="284.3626"
     inkscape:cy="318.29609"
     inkscape:window-width="1920"
     inkscape:window-height="1002"
     inkscape:window-x="-8"
     inkscape:window-y="-8"
     inkscape:window-maximized="1"
     inkscape:current-layer="layer1" /><defs
     id="defs53811"><linearGradient
       inkscape:collect="always"
       id="linearGradient61723"><stop
         style="stop-color:#4924a1;stop-opacity:1;"
         offset="0"
         id="stop61717" /><stop
         style="stop-color:#7038f8;stop-opacity:1;"
         offset="0.2105263"
         id="stop61719" /><stop
         style="stop-color:#af93fb;stop-opacity:1;"
         offset="1"
         id="stop61721" /></linearGradient><linearGradient
       inkscape:collect="always"
       id="linearGradient61705"><stop
         style="stop-color:#ffffff;stop-opacity:1;"
         offset="0"
         id="stop61701" /><stop
         style="stop-color:#e3def4;stop-opacity:0.99789476;"
         offset="1"
         id="stop61703" /></linearGradient><linearGradient
       inkscape:collect="always"
       id="linearGradient61697"><stop
         style="stop-color:#0083e4;stop-opacity:0.99368423;"
         offset="0"
         id="stop61693" /><stop
         style="stop-color:#2668dc;stop-opacity:0.99157888;"
         offset="1"
         id="stop61695" /></linearGradient><linearGradient
       inkscape:collect="always"
       xlink:href="#linearGradient31173"
       id="linearGradient31175"
       x1="87.088875"
       y1="-3.4073861"
       x2="87.088875"
       y2="174.89601"
       gradientUnits="userSpaceOnUse"
       gradientTransform="translate(82.958887,-298.79565)" /><linearGradient
       inkscape:collect="always"
       id="linearGradient31173"><stop
         style="stop-color:#4924a1;stop-opacity:1;"
         offset="0"
         id="stop31905" /><stop
         style="stop-color:#7038f8;stop-opacity:1;"
         offset="0.2105263"
         id="stop31171" /><stop
         style="stop-color:#a27dfa;stop-opacity:1;"
         offset="1"
         id="stop31169" /></linearGradient><filter
       inkscape:menu-tooltip="In and out glow with a possible offset and colorizable flood"
       inkscape:menu="Shadows and Glows"
       inkscape:label="Cutout Glow"
       style="color-interpolation-filters:sRGB;"
       id="filter58764"
       x="-0.016081192"
       y="-0.0140625"
       width="1.0388629"
       height="1.0339844"><feOffset
         dy="3"
         dx="3"
         id="feOffset58754" /><feGaussianBlur
         stdDeviation="3"
         result="blur"
         id="feGaussianBlur58756" /><feFlood
         flood-color="rgb(0,0,0)"
         flood-opacity="1"
         result="flood"
         id="feFlood58758" /><feComposite
         in="flood"
         in2="SourceGraphic"
         operator="in"
         result="composite"
         id="feComposite58760" /><feBlend
         in="blur"
         in2="composite"
         mode="normal"
         id="feBlend58762" /></filter><linearGradient
       inkscape:collect="always"
       xlink:href="#linearGradient61697"
       id="linearGradient61699"
       x1="241.07594"
       y1="-4.9254909"
       x2="241.07594"
       y2="528.9679"
       gradientUnits="userSpaceOnUse" /><linearGradient
       inkscape:collect="always"
       xlink:href="#linearGradient61705"
       id="linearGradient61707"
       x1="241.07594"
       y1="-4.9254909"
       x2="241.07594"
       y2="528.9679"
       gradientUnits="userSpaceOnUse" /><linearGradient
       inkscape:collect="always"
       xlink:href="#linearGradient61723"
       id="linearGradient61715"
       x1="168.25212"
       y1="-303.99869"
       x2="168.25212"
       y2="-123.18138"
       gradientUnits="userSpaceOnUse" /><filter
       inkscape:menu="Shadows and Glows"
       inkscape:menu-tooltip="Cut out, add inner shadow and colorize some parts of an image"
       style="color-interpolation-filters:sRGB;"
       inkscape:label="Emergence"
       id="filter62505"
       x="-0.045194596"
       y="-0.045194596"
       width="1.1071642"
       height="1.1071642"><feColorMatrix
         values="0 0 0 0 0 0 0 0 0 0 0 0 0 0 0 0.21 0.72 0.07 0 0 "
         result="result1"
         id="feColorMatrix62477" /><feColorMatrix
         values="1 0 0 0 0 0 1 0 0 0 0 0 1 0 0 0 0 0 2 0 "
         result="result9"
         id="feColorMatrix62479" /><feComposite
         in2="result9"
         in="SourceGraphic"
         operator="in"
         result="result4"
         id="feComposite62481" /><feFlood
         result="result2"
         flood-color="rgb(0,0,0)"
         id="feFlood62483" /><feComposite
         in2="result9"
         operator="in"
         result="result10"
         id="feComposite62485" /><feComposite
         in2="result4"
         operator="atop"
         id="feComposite62487" /><feGaussianBlur
         stdDeviation="3"
         result="result8"
         id="feGaussianBlur62489" /><feOffset
         dx="3"
         dy="3"
         result="result3"
         in="result8"
         id="feOffset62491" /><feFlood
         flood-opacity="1"
         flood-color="rgb(219,173,62)"
         result="result5"
         id="feFlood62493" /><feMerge
         result="result6"
         id="feMerge62501"><feMergeNode
           in="result5"
           id="feMergeNode62495" /><feMergeNode
           in="result3"
           id="feMergeNode62497" /><feMergeNode
           in="result4"
           id="feMergeNode62499" /></feMerge><feComposite
         in2="SourceGraphic"
         operator="in"
         result="result7"
         id="feComposite62503" /></filter></defs><g
     inkscape:label="Layer 1"
     inkscape:groupmode="layer"
     id="layer1"
     transform="translate(-80.808449,-123.18572)"><circle
       style="fill:url(#linearGradient31175);fill-opacity:1;fill-rule:evenodd;stroke-width:1.765;stroke:url(#linearGradient61715);stroke-dasharray:none;filter:url(#filter62505)"
       id="circle3082"
       cx="170.22733"
       cy="-212.6046"
       r="89.418877"
       transform="scale(1,-1)" /><g
       style="fill:url(#linearGradient61707);filter:url(#filter58764);stroke-width:6.29291347;stroke-dasharray:none;stroke:url(#linearGradient61699);fill-opacity:1"
       id="g56122"
       transform="matrix(0.26458333,0,0,0.26458333,102.52998,144.87127)"><path
         fill-rule="evenodd"
         clip-rule="evenodd"
         d="m 280.702,254.881 c 3.47,-2.116 6.414,-6.55 8.788,-11.478 31.245,12.77 53.202,42.946 53.202,78.137 0,46.75 -38.75,84.649 -86.55,84.649 -19.622,0 -37.719,-6.387 -52.236,-17.15 -4.762,-2.255 -8.68,-4.421 -11.886,-6.194 -4.973,-2.749 -8.234,-4.552 -10.276,-4.27 -5.969,0.823 -4.236,6.315 -2.661,11.304 1.069,3.389 2.066,6.546 0.523,7.848 -1.614,1.364 -6.842,-3.621 -12.951,-9.445 -8.316,-7.929 -18.264,-17.414 -22.955,-14.565 -3.709,2.253 -0.108,8.364 4.3,15.844 l 0.327,0.555 c 1.862,3.162 4.02,6.382 5.989,9.32 4.003,5.971 7.227,10.783 5.614,11.597 -1.95,0.984 -15.536,-8.186 -26.985,-20.917 -4.419,-4.913 -8.699,-10.239 -12.677,-15.188 v -10e-4 c -8.707,-10.834 -15.961,-19.859 -20.033,-18.79 -4.8985,1.286 -1.1929,11.39 4.252,21.113 2.546,4.547 5.541,9.177 8.134,13.186 v 0.001 c 4.033,6.234 7.094,10.965 5.984,11.547 -1.498,0.783 -14.679,-12.07 -23.6316,-28.267 -5.3175,-9.621 -9.7825,-20.253 -13.3973,-28.86 -3.9201,-9.335 -6.8402,-16.288 -8.763,-16.988 -6.6806,-2.431 -6.6806,11.19 -4.0012,30.849 0.3495,2.565 0.87,5.255 1.5109,7.994 C 96.307,450.785 176.128,512 270.567,512 c 115.517,0 209.161,-91.588 209.161,-204.568 0,-107.532 -84.829,-195.685 -192.608,-203.938 0.136,-5.0656 2.78,-15.111 2.78,-15.111 0,0 19.027,-46.0358 20.033,-55.8731 0.066,-0.6529 0.145,-1.3624 0.23,-2.118 C 311.348,19.7629 313.553,0 296.551,0 287.471,0 283.249,6.75464 278.42,14.4799 v 10e-5 c -1.854,2.9657 -3.798,6.0745 -6.14,8.999 -16.868,21.0646 -45.232,47.3698 -61.315,61.3841 -33.994,29.6209 -67.346,53.9649 -86.798,68.1629 v 0 l -0.001,10e-4 c -8.847,6.457 -14.818,10.816 -16.666,12.617 -13.926,13.576 -63.8582,103.642 -63.8582,103.642 0,0 -16.1475,28.896 -10.408,34.757 5.7395,5.86 19.5803,4.517 19.5803,4.517 0,0 185.9409,-42.657 202.5879,-46.021 4.482,-0.906 7.646,-1.429 10.075,-1.83 6.595,-1.089 7.779,-1.285 15.225,-5.828 z M 149.235,200.064 c -9.981,9.487 -26.534,32.132 -26.534,32.132 0,0 30.764,1.895 47.707,-14.21 16.944,-16.106 13.062,-43.553 13.062,-43.553 0,0 -24.255,16.144 -34.235,25.631 z"
         fill="#ffffff"
         id="path56113"
         style="stroke-width:6.29291347;stroke-dasharray:none;stroke:url(#linearGradient61699);fill-opacity:1;fill:url(#linearGradient61707)" /></g></g></svg>
