<?xml version="1.0" encoding="UTF-8" standalone="no"?>
<svg
   viewBox="0 0 675.92224 675.92224"
   fill="none"
   version="1.1"
   id="svg8493"
   sodipodi:docname="fairy.svg"
   inkscape:version="1.2 (dc2aedaf03, 2022-05-15)"
   xmlns:inkscape="http://www.inkscape.org/namespaces/inkscape"
   xmlns:sodipodi="http://sodipodi.sourceforge.net/DTD/sodipodi-0.dtd"
   xmlns:xlink="http://www.w3.org/1999/xlink"
   xmlns="http://www.w3.org/2000/svg"
   xmlns:svg="http://www.w3.org/2000/svg">
  <defs
     id="defs8497">
    <linearGradient
       inkscape:collect="always"
       id="linearGradient12003">
      <stop
         style="stop-color:#ab1f64;stop-opacity:1;"
         offset="0"
         id="stop11999" />
      <stop
         style="stop-color:#ffffff;stop-opacity:1;"
         offset="1"
         id="stop12001" />
    </linearGradient>
    <linearGradient
       inkscape:collect="always"
       id="linearGradient11269">
      <stop
         style="stop-color:#63031d;stop-opacity:1;"
         offset="0"
         id="stop11265" />
      <stop
         style="stop-color:#e468a6;stop-opacity:1;"
         offset="1"
         id="stop11267" />
    </linearGradient>
    <linearGradient
       inkscape:collect="always"
       xlink:href="#linearGradient31173"
       id="linearGradient31175"
       x1="87.088875"
       y1="-3.4073861"
       x2="87.088875"
       y2="174.89601"
       gradientUnits="userSpaceOnUse"
       gradientTransform="matrix(3.7795276,0,0,3.7795276,8.1276538,-663.72259)" />
    <linearGradient
       inkscape:collect="always"
       id="linearGradient31173">
      <stop
         style="stop-color:#db3487;stop-opacity:1;"
         offset="0"
         id="stop31905" />
      <stop
         style="stop-color:#e97f97;stop-opacity:1;"
         offset="0.47014168"
         id="stop31171" />
      <stop
         style="stop-color:#f7d1d9;stop-opacity:1;"
         offset="1"
         id="stop31169" />
    </linearGradient>
    <filter
       inkscape:menu-tooltip="In and out glow with a possible offset and colorizable flood"
       inkscape:menu="Shadows and Glows"
       inkscape:label="Cutout Glow"
       style="color-interpolation-filters:sRGB"
       id="filter8691"
       x="-0.017638687"
       y="-0.017638683"
       width="1.041134"
       height="1.0411404">
      <feOffset
         dy="3"
         dx="3"
         id="feOffset8681" />
      <feGaussianBlur
         stdDeviation="3"
         result="blur"
         id="feGaussianBlur8683" />
      <feFlood
         flood-color="rgb(0,0,0)"
         flood-opacity="1"
         result="flood"
         id="feFlood8685" />
      <feComposite
         in="flood"
         in2="SourceGraphic"
         operator="in"
         result="composite"
         id="feComposite8687" />
      <feBlend
         in="blur"
         in2="composite"
         mode="normal"
         id="feBlend8689" />
    </filter>
    <linearGradient
       inkscape:collect="always"
       xlink:href="#linearGradient11269"
       id="linearGradient11271"
       x1="604.53534"
       y1="597.17206"
       x2="162.46103"
       y2="125.45485"
       gradientUnits="userSpaceOnUse" />
    <linearGradient
       inkscape:collect="always"
       xlink:href="#linearGradient12003"
       id="linearGradient12005"
       x1="335.3204"
       y1="603.01105"
       x2="339.43271"
       y2="337.96201"
       gradientUnits="userSpaceOnUse" />
  </defs>
  <sodipodi:namedview
     id="namedview8495"
     pagecolor="#505050"
     bordercolor="#eeeeee"
     borderopacity="1"
     inkscape:showpageshadow="0"
     inkscape:pageopacity="0"
     inkscape:pagecheckerboard="0"
     inkscape:deskcolor="#505050"
     showgrid="false"
     inkscape:zoom="0.85644531"
     inkscape:cx="60.716078"
     inkscape:cy="273.80616"
     inkscape:window-width="1920"
     inkscape:window-height="1002"
     inkscape:window-x="-8"
     inkscape:window-y="-8"
     inkscape:window-maximized="1"
     inkscape:current-layer="svg8493" />
  <circle
     style="fill:url(#linearGradient31175);fill-opacity:1;fill-rule:evenodd;stroke-width:0.999999"
     id="circle3082"
     cx="337.96112"
     cy="-337.96112"
     r="337.96112"
     transform="scale(1,-1)" />
  <path
     fill-rule="evenodd"
     clip-rule="evenodd"
     d="m 183.19569,486.44762 82.122,-23.812 70.93,129.691 c 0.093,0.168 0.334,0.168 0.426,0 l 70.93,-129.691 82.123,23.812 c 0.184,0.053 0.355,-0.118 0.3,-0.302 l -23.816,-80.497 126.115,-68.975 c 0.169,-0.092 0.169,-0.333 10e-4,-0.425 l -127.155,-69.544 24.855,-84.01 c 0.055,-0.184 -0.116,-0.355 -0.3,-0.302 l -84.049,24.371 -69.004,-126.167817 c -0.092,-0.16824 -0.333,-0.16825 -0.425,0 l -69.004,126.167817 -84.049,-24.371 c -0.184,-0.053 -0.355,0.118 -0.3,0.302 l 24.855,84.01 -127.154813,69.544 c -0.16825,0.092 -0.16825,0.333 -1e-5,0.425 l 126.114823,68.975 -23.815,80.497 c -0.055,0.184 0.116,0.355 0.3,0.302 z m 63.726,-149.102 58.179,31.819 31.819,58.178 c 0.092,0.169 0.334,0.169 0.426,0 l 31.819,-58.178 58.178,-31.819 c 0.168,-0.092 0.168,-0.334 0,-0.426 l -58.178,-31.819 -31.819,-58.178 c -0.092,-0.169 -0.334,-0.169 -0.426,0 l -31.819,58.178 -58.179,31.819 c -0.168,0.092 -0.168,0.334 0,0.426 z"
     fill="#ffffff"
     id="path8491"
     style="filter:url(#filter8691);stroke:url(#linearGradient11271);stroke-width:3.8;stroke-dasharray:none;fill-opacity:1;fill:url(#linearGradient12005)" />
</svg>
