<?xml version="1.0" encoding="UTF-8" standalone="no"?>
<svg
   viewBox="0 0 675.92224 675.92224"
   fill="none"
   version="1.1"
   id="svg51914"
   sodipodi:docname="psychic.svg"
   xml:space="preserve"
   inkscape:version="1.2 (dc2aedaf03, 2022-05-15)"
   xmlns:inkscape="http://www.inkscape.org/namespaces/inkscape"
   xmlns:sodipodi="http://sodipodi.sourceforge.net/DTD/sodipodi-0.dtd"
   xmlns:xlink="http://www.w3.org/1999/xlink"
   xmlns="http://www.w3.org/2000/svg"
   xmlns:svg="http://www.w3.org/2000/svg"><defs
     id="defs51918"><linearGradient
       inkscape:collect="always"
       id="linearGradient57774"><stop
         style="stop-color:#cdaeda;stop-opacity:1;"
         offset="0"
         id="stop57770" /><stop
         style="stop-color:#e6e6e6;stop-opacity:1;"
         offset="1"
         id="stop57772" /></linearGradient><linearGradient
       inkscape:collect="always"
       id="linearGradient56976"><stop
         style="stop-color:#653a77;stop-opacity:1;"
         offset="0"
         id="stop56972" /><stop
         style="stop-color:#653a77;stop-opacity:0;"
         offset="1"
         id="stop56974" /></linearGradient><linearGradient
       inkscape:collect="always"
       id="linearGradient56193"><stop
         style="stop-color:#653a77;stop-opacity:1;"
         offset="0"
         id="stop56189" /><stop
         style="stop-color:#653a77;stop-opacity:0.35789475;"
         offset="1"
         id="stop56191" /></linearGradient><linearGradient
       inkscape:collect="always"
       xlink:href="#linearGradient31173"
       id="linearGradient31175"
       x1="87.088875"
       y1="-3.4073865"
       x2="87.088875"
       y2="174.89601"
       gradientUnits="userSpaceOnUse"
       gradientTransform="matrix(3.7795276,0,0,3.7795276,8.1276636,-663.72258)" /><linearGradient
       inkscape:collect="always"
       id="linearGradient31173"><stop
         style="stop-color:#a13959;stop-opacity:1;"
         offset="0"
         id="stop31905" /><stop
         style="stop-color:#f85888;stop-opacity:1;"
         offset="0.48325357"
         id="stop31171" /><stop
         style="stop-color:#fa92b2;stop-opacity:1;"
         offset="1"
         id="stop31169" /></linearGradient><filter
       inkscape:menu-tooltip="In and out glow with a possible offset and colorizable flood"
       inkscape:menu="Shadows and Glows"
       inkscape:label="Cutout Glow"
       style="color-interpolation-filters:sRGB"
       id="filter52159"
       x="-0.018928821"
       y="-0.017580387"
       width="1.0441692"
       height="1.0410199"><feOffset
         dy="3"
         dx="3"
         id="feOffset52149" /><feGaussianBlur
         stdDeviation="3"
         result="blur"
         id="feGaussianBlur52151" /><feFlood
         flood-color="rgb(0,0,0)"
         flood-opacity="1"
         result="flood"
         id="feFlood52153" /><feComposite
         in="flood"
         in2="SourceGraphic"
         operator="in"
         result="composite"
         id="feComposite52155" /><feBlend
         in="blur"
         in2="composite"
         mode="normal"
         id="feBlend52157" /></filter><linearGradient
       inkscape:collect="always"
       xlink:href="#linearGradient56193"
       id="linearGradient56195"
       x1="337.28247"
       y1="-676.60089"
       x2="337.28247"
       y2="-2.698278"
       gradientUnits="userSpaceOnUse" /><linearGradient
       inkscape:collect="always"
       xlink:href="#linearGradient56976"
       id="linearGradient56978"
       x1="91.546631"
       y1="337.96112"
       x2="584.37561"
       y2="337.96112"
       gradientUnits="userSpaceOnUse" /><linearGradient
       inkscape:collect="always"
       xlink:href="#linearGradient57774"
       id="linearGradient57776"
       x1="89.747321"
       y1="337.96088"
       x2="586.17565"
       y2="337.96088"
       gradientUnits="userSpaceOnUse" /></defs><sodipodi:namedview
     id="namedview51916"
     pagecolor="#505050"
     bordercolor="#eeeeee"
     borderopacity="1"
     inkscape:showpageshadow="0"
     inkscape:pageopacity="0"
     inkscape:pagecheckerboard="0"
     inkscape:deskcolor="#505050"
     showgrid="false"
     inkscape:zoom="0.57107159"
     inkscape:cx="-137.46087"
     inkscape:cy="480.67529"
     inkscape:window-width="1920"
     inkscape:window-height="1002"
     inkscape:window-x="-8"
     inkscape:window-y="-8"
     inkscape:window-maximized="1"
     inkscape:current-layer="svg51914" /><circle
     style="fill:url(#linearGradient31175);fill-opacity:1;fill-rule:evenodd;stroke-width:3.1;stroke-dasharray:none;stroke:url(#linearGradient56195)"
     id="circle3082"
     cx="337.96112"
     cy="-337.96112"
     r="337.96112"
     transform="scale(1,-1)" /><path
     fill-rule="evenodd"
     clip-rule="evenodd"
     d="m 536.67165,505.67282 c 0,0 -64.56004,51.779 -193.03204,30.352 -97.47,-16.257 -149.456,-123.703 -149.456,-181.457 0,-136.93 101.346,-168.091 169.863,-168.091 68.516,0 113.213,66.8 113.213,118.52 0,51.72 -36.58,96.958 -93.507,96.958 -56.926,0 -73.786,-39.965 -73.786,-76.708 0,-36.742 29.727,-49.687 56.838,-49.687 27.111,0 36.394,23.146 36.394,43.039 0,19.894 -15.435,27.018 -28.309,27.018 -12.874,0 -14.147,-6.495 -19.074,-13.321 -4.928,-6.825 6.284,-32.661 -12.176,-32.661 -18.46,0 -21.901,29.701 -21.901,29.701 0,0 6.73,57.333 62.014,56.344 55.285,-0.99 81.512,-43.73 73.89,-86.045 -7.622,-42.316 -48.689,-87.281 -120.763,-78.195 -72.074,9.086 -101.501,81.91 -88.53,159.734 12.971,77.825 106.204,122.917 179.509,106.694 73.306,-16.223 146.31704,-69.293 146.31704,-203.846 0,-134.5541 -116.53304,-215.433194 -255.48804,-202.103863 C 179.73251,95.247223 93.475614,216.73082 98.996814,362.69582 c 5.521196,145.965 144.024796,225.462 261.143796,229.559 117.119,4.098 188.91804,-63.699 188.91804,-63.699 0,0 16.147,-14.399 9.816,-25.643 -6.33,-11.244 -22.203,2.76 -22.203,2.76 z"
     fill="#ffffff"
     id="path51912"
     style="filter:url(#filter52159);stroke:url(#linearGradient56978);stroke-width:3.6;stroke-dasharray:none;fill-opacity:1;fill:url(#linearGradient57776)" /></svg>
