<?xml version="1.0" encoding="UTF-8" standalone="no"?>
<!-- Created with Inkscape (http://www.inkscape.org/) -->

<svg
   viewBox="0 0 15.061042 13.233535"
   version="1.1"
   id="svg2353"
   xml:space="preserve"
   inkscape:version="1.2 (dc2aedaf03, 2022-05-15)"
   sodipodi:docname="defense-V2.svg"
   xmlns:inkscape="http://www.inkscape.org/namespaces/inkscape"
   xmlns:sodipodi="http://sodipodi.sourceforge.net/DTD/sodipodi-0.dtd"
   xmlns="http://www.w3.org/2000/svg"
   xmlns:svg="http://www.w3.org/2000/svg"><sodipodi:namedview
     id="namedview2355"
     pagecolor="#505050"
     bordercolor="#eeeeee"
     borderopacity="1"
     inkscape:showpageshadow="0"
     inkscape:pageopacity="0"
     inkscape:pagecheckerboard="0"
     inkscape:deskcolor="#505050"
     inkscape:document-units="mm"
     showgrid="false"
     inkscape:zoom="4.1676048"
     inkscape:cx="-0.83981091"
     inkscape:cy="17.396083"
     inkscape:window-width="1920"
     inkscape:window-height="1002"
     inkscape:window-x="-8"
     inkscape:window-y="-8"
     inkscape:window-maximized="1"
     inkscape:current-layer="layer1" /><defs
     id="defs2350" /><g
     inkscape:label="Layer 1"
     inkscape:groupmode="layer"
     id="layer1"
     transform="translate(-24.557181,-76.18764)"><g
       id="g6260"><path
         id="path4808"
         style="fill:#ffffff;fill-rule:evenodd;stroke:#feef88;stroke-width:0.365;stroke-dasharray:none"
         d="M 24.743733 76.270322 L 24.639863 76.278074 L 24.639863 85.593267 L 31.446166 89.338775 L 32.817142 89.338775 L 39.535595 85.459942 L 39.535595 76.270322 L 24.743733 76.270322 z M 31.967581 77.987013 L 32.695702 80.79201 L 35.748229 79.355405 L 33.952473 81.68963 L 37.005517 82.048781 L 37.107836 82.087538 L 33.952473 82.767083 L 35.748229 85.101825 L 32.695702 83.66522 L 31.876631 86.481069 L 31.797566 86.179278 L 31.258581 83.66522 L 28.206054 85.101825 L 30.00181 82.767083 L 26.722424 82.125262 L 26.948766 82.048781 L 30.00181 81.68963 L 28.206054 79.355405 L 31.258581 80.79201 L 31.875597 78.304823 L 31.967581 77.987013 z " /></g></g></svg>
