<?xml version="1.0" encoding="UTF-8" standalone="no"?>
<!-- Created with Inkscape (http://www.inkscape.org/) -->

<svg
   viewBox="0 0 13.345105 11.772486"
   version="1.1"
   id="svg2353"
   xml:space="preserve"
   inkscape:version="1.2 (dc2aedaf03, 2022-05-15)"
   sodipodi:docname="special-defense-V2.svg"
   xmlns:inkscape="http://www.inkscape.org/namespaces/inkscape"
   xmlns:sodipodi="http://sodipodi.sourceforge.net/DTD/sodipodi-0.dtd"
   xmlns="http://www.w3.org/2000/svg"
   xmlns:svg="http://www.w3.org/2000/svg"><sodipodi:namedview
     id="namedview2355"
     pagecolor="#505050"
     bordercolor="#eeeeee"
     borderopacity="1"
     inkscape:showpageshadow="0"
     inkscape:pageopacity="0"
     inkscape:pagecheckerboard="0"
     inkscape:deskcolor="#505050"
     inkscape:document-units="mm"
     showgrid="false"
     inkscape:zoom="5.8938832"
     inkscape:cx="-23.498939"
     inkscape:cy="29.946301"
     inkscape:window-width="1920"
     inkscape:window-height="1002"
     inkscape:window-x="-8"
     inkscape:window-y="-8"
     inkscape:window-maximized="1"
     inkscape:current-layer="layer1" /><defs
     id="defs2350" /><g
     inkscape:label="Layer 1"
     inkscape:groupmode="layer"
     id="layer1"
     transform="translate(-24.457362,-77.748796)"><path
       id="path4808"
       style="fill:#ffffff;fill-opacity:1;fill-rule:evenodd;stroke:#feef88;stroke-width:0.42;stroke-dasharray:none"
       d="m 24.707955,77.908559 -0.09083,0.0068 v 8.163665 l 5.951774,3.282495 h 1.19885 l 5.874955,-3.399338 v -8.053616 z m 6.410439,1.947396 c 1.339603,0 2.55617,0.32843 3.451947,0.872705 0.895777,0.544277 1.48399,1.323426 1.48399,2.210069 0,0.886652 -0.588213,1.665339 -1.48399,2.209616 -0.895777,0.544275 -2.112344,0.871346 -3.451947,0.871346 -1.339596,0 -2.553911,-0.327071 -3.449689,-0.871346 -0.895779,-0.544277 -1.485797,-1.322964 -1.485797,-2.209616 0,-0.886643 0.590018,-1.665792 1.485797,-2.210069 0.895778,-0.544275 2.110093,-0.872705 3.449689,-0.872705 z" /><g
       id="ellipse849"
       style="display:inline;stroke:#feef88;stroke-width:0.1;stroke-dasharray:none;stroke-opacity:1"
       transform="translate(-70.27677,-78.162104)"
       inkscape:label="ellipse849" /><g
       id="ellipse851"
       style="stroke:#feef88;stroke-width:0.44321806;stroke-dasharray:none;stroke-opacity:1"
       transform="matrix(0.87445045,0,0,0.87638181,-58.382765,-57.43321)"><path
         style="color:#000000;fill:#c04e42;fill-opacity:0;fill-rule:evenodd;stroke:#feef88;stroke-width:0.44321806;stroke-dasharray:none;stroke-opacity:1"
         d="m 106.0674,159.83455 a 3.8351214,2.1692026 0 0 1 -3.83512,2.1692 3.8351214,2.1692026 0 0 1 -3.835124,-2.1692 3.8351214,2.1692026 0 0 1 3.835124,-2.1692 3.8351214,2.1692026 0 0 1 3.83512,2.1692 z"
         id="path5593" /></g><g
       id="ellipse853"
       style="stroke:#feef88;stroke-width:0.42836797;stroke-dasharray:none;stroke-opacity:1"
       transform="matrix(0.87445045,0,0,0.87638181,-58.382765,-57.43321)"><path
         style="color:#000000;fill:#feef88;fill-opacity:0;fill-rule:evenodd;stroke:#feef88;stroke-width:0.42836797;stroke-dasharray:none;stroke-opacity:1"
         d="m 104.94412,159.43391 a 2.6681535,1.2546309 0 0 1 -2.66816,1.25464 2.6681535,1.2546309 0 0 1 -2.668151,-1.25464 2.6681535,1.2546309 0 0 1 2.668151,-1.25463 2.6681535,1.2546309 0 0 1 2.66816,1.25463 z"
         id="path5599" /></g><g
       id="ellipse855"
       style="stroke:#feef88;stroke-width:0.42836797;stroke-dasharray:none;stroke-opacity:1"
       transform="matrix(0.87445045,0,0,0.87638181,-58.382765,-57.43321)"><path
         style="color:#000000;fill:#ffffff;fill-opacity:0;fill-rule:evenodd;stroke:#feef88;stroke-width:0.42836797;stroke-dasharray:none;stroke-opacity:1"
         d="m 103.82483,159.40448 a 1.5509573,0.69704819 0 0 1 -1.55096,0.69705 1.5509573,0.69704819 0 0 1 -1.55095,-0.69705 1.5509573,0.69704819 0 0 1 1.55095,-0.69705 1.5509573,0.69704819 0 0 1 1.55096,0.69705 z"
         id="path5605" /><path
         style="color:#000000;fill:#ffffff;fill-opacity:0;fill-rule:evenodd;stroke:#feef88;stroke-width:0.42836797;stroke-dasharray:none;stroke-opacity:0"
         d="m 102.27344,158.56055 c -0.44614,0 -0.85008,0.0792 -1.15625,0.21679 -0.15309,0.0688 -0.28211,0.15301 -0.37891,0.25586 -0.0968,0.10286 -0.16211,0.23066 -0.16211,0.3711 0,0.14043 0.0653,0.27019 0.16211,0.37304 0.0968,0.10286 0.22582,0.18511 0.37891,0.25391 0.30617,0.1376 0.71011,0.2168 1.15625,0.2168 0.44613,0 0.85203,-0.0792 1.1582,-0.2168 0.15308,-0.0688 0.28211,-0.15105 0.37891,-0.25391 0.0968,-0.10285 0.16211,-0.23261 0.16211,-0.37304 0,-0.14044 -0.0653,-0.26824 -0.16211,-0.3711 -0.0968,-0.10285 -0.22583,-0.18706 -0.37891,-0.25586 -0.30617,-0.1376 -0.71207,-0.21679 -1.1582,-0.21679 z m 0,0.29297 c 0.41043,0 0.78194,0.0767 1.03711,0.1914 0.12758,0.0573 0.22499,0.12553 0.28515,0.18945 0.0602,0.0639 0.082,0.11788 0.082,0.16993 0,0.052 -0.0219,0.10599 -0.082,0.16992 -0.0602,0.0639 -0.15757,0.13211 -0.28515,0.18945 -0.25517,0.11468 -0.62668,0.19141 -1.03711,0.19141 -0.41043,0 -0.77999,-0.0767 -1.03516,-0.19141 -0.12758,-0.0573 -0.22694,-0.12552 -0.28711,-0.18945 -0.0602,-0.0639 -0.082,-0.11787 -0.082,-0.16992 0,-0.0521 0.0219,-0.106 0.082,-0.16993 0.0602,-0.0639 0.15953,-0.13211 0.28711,-0.18945 0.25517,-0.11468 0.62473,-0.1914 1.03516,-0.1914 z"
         id="path5607" /></g></g></svg>
