<?xml version="1.0" encoding="UTF-8" standalone="no"?>
<!-- Created with Inkscape (http://www.inkscape.org/) -->

<svg
   viewBox="0 0 11.48984 7.2330823"
   version="1.1"
   id="svg872"
   inkscape:version="1.2 (dc2aedaf03, 2022-05-15)"
   sodipodi:docname="special-attack.svg"
   xmlns:inkscape="http://www.inkscape.org/namespaces/inkscape"
   xmlns:sodipodi="http://sodipodi.sourceforge.net/DTD/sodipodi-0.dtd"
   xmlns="http://www.w3.org/2000/svg"
   xmlns:svg="http://www.w3.org/2000/svg">
  <sodipodi:namedview
     id="namedview874"
     pagecolor="#505050"
     bordercolor="#eeeeee"
     borderopacity="1"
     inkscape:showpageshadow="0"
     inkscape:pageopacity="0"
     inkscape:pagecheckerboard="0"
     inkscape:deskcolor="#505050"
     inkscape:document-units="mm"
     showgrid="false"
     inkscape:zoom="8.3352097"
     inkscape:cx="1.7995948"
     inkscape:cy="9.2979065"
     inkscape:window-width="1920"
     inkscape:window-height="1002"
     inkscape:window-x="-8"
     inkscape:window-y="-8"
     inkscape:window-maximized="1"
     inkscape:current-layer="layer1" />
  <defs
     id="defs869" />
  <g
     inkscape:label="Layer 1"
     inkscape:groupmode="layer"
     id="layer1"
     transform="translate(-96.606963,-156.55517)">
    <g
       id="ellipse849"
       style="stroke:#feef88;stroke-opacity:1;stroke-width:0.1;stroke-dasharray:none">
      <path
         style="color:#000000;fill:#c04e42;fill-opacity:0;fill-rule:evenodd;stroke-width:0.1;stroke:#feef88;stroke-opacity:1;stroke-dasharray:none"
         d="m 107.75742,160.17171 a 5.4055395,3.2771606 0 0 1 -5.40554,3.27716 5.4055395,3.2771606 0 0 1 -5.405537,-3.27716 5.4055395,3.2771606 0 0 1 5.405537,-3.27716 5.4055395,3.2771606 0 0 1 5.40554,3.27716 z"
         id="path5587" />
      <path
         style="color:#000000;fill:#ffffff;fill-rule:evenodd;stroke:#feef88;stroke-opacity:1;stroke-width:0.1;stroke-dasharray:none"
         d="m 102.35156,156.6543 c -1.53193,0 -2.920919,0.37504 -3.94531,0.99609 -1.024391,0.62105 -1.699219,1.50977 -1.699219,2.52148 0,1.01172 0.674828,1.90044 1.699219,2.52149 1.024391,0.62105 2.41338,0.99414 3.94531,0.99414 1.53194,0 2.92288,-0.37309 3.94727,-0.99414 1.02439,-0.62105 1.69726,-1.50977 1.69726,-2.52149 0,-1.01171 -0.67287,-1.90043 -1.69726,-2.52148 -1.02439,-0.62105 -2.41533,-0.99609 -3.94727,-0.99609 z m 0,0.48047 c 1.45346,0 2.76719,0.35877 3.69922,0.92382 0.93203,0.56505 1.4668,1.31507 1.4668,2.11328 0,0.79822 -0.53477,1.54824 -1.4668,2.11329 -0.93203,0.56505 -2.24576,0.92382 -3.69922,0.92382 -1.45346,0 -2.765235,-0.35877 -3.697263,-0.92382 -0.932028,-0.56505 -1.46875,-1.31507 -1.46875,-2.11329 0,-0.79821 0.536722,-1.54823 1.46875,-2.11328 0.932028,-0.56505 2.243803,-0.92382 3.697263,-0.92382 z"
         id="path5589" />
    </g>
    <g
       id="ellipse851"
       style="stroke:#feef88;stroke-opacity:1;stroke-width:0.1;stroke-dasharray:none">
      <path
         style="color:#000000;fill:#c04e42;fill-opacity:0;fill-rule:evenodd;stroke-width:0.1;stroke:#feef88;stroke-opacity:1;stroke-dasharray:none"
         d="m 106.0674,159.83455 a 3.8351214,2.1692026 0 0 1 -3.83512,2.1692 3.8351214,2.1692026 0 0 1 -3.835124,-2.1692 3.8351214,2.1692026 0 0 1 3.835124,-2.1692 3.8351214,2.1692026 0 0 1 3.83512,2.1692 z"
         id="path5593" />
      <path
         style="color:#000000;fill:#ffffff;fill-rule:evenodd;stroke:#feef88;stroke-opacity:1;stroke-width:0.1;stroke-dasharray:none"
         d="m 102.23242,157.50586 c -1.08349,0 -2.06664,0.24653 -2.791014,0.65625 -0.724375,0.40972 -1.205078,0.99643 -1.205078,1.67187 0,0.67545 0.480703,1.26411 1.205078,1.67383 0.724374,0.40972 1.707524,0.65625 2.791014,0.65625 1.08349,0 2.06664,-0.24653 2.79102,-0.65625 0.72437,-0.40972 1.20312,-0.99838 1.20312,-1.67383 0,-0.67544 -0.47875,-1.26215 -1.20312,-1.67187 -0.72438,-0.40972 -1.70753,-0.65625 -2.79102,-0.65625 z m 0,0.32031 c 1.03459,0 1.96915,0.2379 2.63281,0.61328 0.66367,0.37538 1.04297,0.87197 1.04297,1.39453 0,0.52257 -0.3793,1.01916 -1.04297,1.39454 -0.66366,0.37537 -1.59822,0.61523 -2.63281,0.61523 -1.03458,0 -1.96915,-0.23986 -2.632811,-0.61523 -0.663664,-0.37538 -1.042968,-0.87197 -1.042968,-1.39454 0,-0.52256 0.379304,-1.01915 1.042968,-1.39453 0.663661,-0.37538 1.598231,-0.61328 2.632811,-0.61328 z"
         id="path5595" />
    </g>
    <g
       id="ellipse853"
       style="stroke:#feef88;stroke-opacity:1;stroke-width:0.1;stroke-dasharray:none">
      <path
         style="color:#000000;fill:#feef88;fill-opacity:0;fill-rule:evenodd;stroke-width:0.1;stroke:#feef88;stroke-opacity:1;stroke-dasharray:none"
         d="m 104.94412,159.43391 a 2.6681535,1.2546309 0 0 1 -2.66816,1.25464 2.6681535,1.2546309 0 0 1 -2.668151,-1.25464 2.6681535,1.2546309 0 0 1 2.668151,-1.25463 2.6681535,1.2546309 0 0 1 2.66816,1.25463 z"
         id="path5599" />
      <path
         style="color:#000000;fill:#ffffff;fill-rule:evenodd;stroke:#feef88;stroke-opacity:1;stroke-width:0.1;stroke-dasharray:none"
         d="m 102.27539,158.0293 c -0.75578,0 -1.43988,0.14331 -1.94922,0.38281 -0.509338,0.2395 -0.867186,0.58912 -0.867186,1.02148 0,0.43237 0.357848,0.78394 0.867186,1.02344 0.50934,0.23951 1.19344,0.38086 1.94922,0.38086 0.75579,0 1.44183,-0.14135 1.95117,-0.38086 0.50934,-0.2395 0.86719,-0.59107 0.86719,-1.02344 0,-0.43236 -0.35785,-0.78198 -0.86719,-1.02148 -0.50934,-0.2395 -1.19538,-0.38281 -1.95117,-0.38281 z m 0,0.29882 c 0.71779,0 1.36788,0.13894 1.82422,0.35352 0.45634,0.21458 0.69531,0.49141 0.69531,0.75195 0,0.26055 -0.23897,0.53737 -0.69531,0.75196 -0.45634,0.21458 -1.10643,0.35351 -1.82422,0.35351 -0.71779,0 -1.36592,-0.13893 -1.82226,-0.35351 -0.456346,-0.21459 -0.695318,-0.49141 -0.695318,-0.75196 0,-0.26054 0.238972,-0.53737 0.695318,-0.75195 0.45634,-0.21458 1.10447,-0.35352 1.82226,-0.35352 z"
         id="path5601" />
    </g>
    <g
       id="ellipse855"
       style="stroke:#feef88;stroke-opacity:1;stroke-width:0.1;stroke-dasharray:none">
      <path
         style="color:#000000;fill:#ffffff;fill-opacity:0;fill-rule:evenodd;stroke-width:0.1;stroke:#feef88;stroke-opacity:1;stroke-dasharray:none"
         d="m 103.82483,159.40448 a 1.5509573,0.69704819 0 0 1 -1.55096,0.69705 1.5509573,0.69704819 0 0 1 -1.55095,-0.69705 1.5509573,0.69704819 0 0 1 1.55095,-0.69705 1.5509573,0.69704819 0 0 1 1.55096,0.69705 z"
         id="path5605" />
      <path
         style="color:#000000;fill:#ffffff;fill-rule:evenodd;stroke:#feef88;stroke-opacity:1;stroke-width:0.1;stroke-dasharray:none"
         d="m 102.27344,158.56055 c -0.44614,0 -0.85008,0.0792 -1.15625,0.21679 -0.15309,0.0688 -0.28211,0.15301 -0.37891,0.25586 -0.0968,0.10286 -0.16211,0.23066 -0.16211,0.3711 0,0.14043 0.0653,0.27019 0.16211,0.37304 0.0968,0.10286 0.22582,0.18511 0.37891,0.25391 0.30617,0.1376 0.71011,0.2168 1.15625,0.2168 0.44613,0 0.85203,-0.0792 1.1582,-0.2168 0.15308,-0.0688 0.28211,-0.15105 0.37891,-0.25391 0.0968,-0.10285 0.16211,-0.23261 0.16211,-0.37304 0,-0.14044 -0.0653,-0.26824 -0.16211,-0.3711 -0.0968,-0.10285 -0.22583,-0.18706 -0.37891,-0.25586 -0.30617,-0.1376 -0.71207,-0.21679 -1.1582,-0.21679 z m 0,0.29297 c 0.41043,0 0.78194,0.0767 1.03711,0.1914 0.12758,0.0573 0.22499,0.12553 0.28515,0.18945 0.0602,0.0639 0.082,0.11788 0.082,0.16993 0,0.052 -0.0219,0.10599 -0.082,0.16992 -0.0602,0.0639 -0.15757,0.13211 -0.28515,0.18945 -0.25517,0.11468 -0.62668,0.19141 -1.03711,0.19141 -0.41043,0 -0.77999,-0.0767 -1.03516,-0.19141 -0.12758,-0.0573 -0.22694,-0.12552 -0.28711,-0.18945 -0.0602,-0.0639 -0.082,-0.11787 -0.082,-0.16992 0,-0.0521 0.0219,-0.106 0.082,-0.16993 0.0602,-0.0639 0.15953,-0.13211 0.28711,-0.18945 0.25517,-0.11468 0.62473,-0.1914 1.03516,-0.1914 z"
         id="path5607" />
    </g>
  </g>
</svg>
