<?xml version="1.0" encoding="UTF-8" standalone="no"?>
<!-- Created with Inkscape (http://www.inkscape.org/) -->

<svg

   viewBox="0 0 144.44011 162.07898"
   version="1.1"
   id="svg5"
   xml:space="preserve"
   inkscape:version="1.2 (dc2aedaf03, 2022-05-15)"
   sodipodi:docname="special-defense.svg"
   xmlns:inkscape="http://www.inkscape.org/namespaces/inkscape"
   xmlns:sodipodi="http://sodipodi.sourceforge.net/DTD/sodipodi-0.dtd"
   xmlns="http://www.w3.org/2000/svg"
   xmlns:svg="http://www.w3.org/2000/svg"><sodipodi:namedview
     id="namedview7"
     pagecolor="#505050"
     bordercolor="#eeeeee"
     borderopacity="1"
     inkscape:showpageshadow="0"
     inkscape:pageopacity="0"
     inkscape:pagecheckerboard="0"
     inkscape:deskcolor="#505050"
     inkscape:document-units="mm"
     showgrid="false"
     inkscape:zoom="0.73673541"
     inkscape:cx="-51.578897"
     inkscape:cy="270.78921"
     inkscape:window-width="1920"
     inkscape:window-height="1002"
     inkscape:window-x="-8"
     inkscape:window-y="-8"
     inkscape:window-maximized="1"
     inkscape:current-layer="g1109" /><defs
     id="defs2" /><g
     inkscape:label="Layer 1"
     inkscape:groupmode="layer"
     id="layer1"
     transform="translate(-22.230973,-31.008862)"><g
       style="fill:none"
       id="g1109"
       transform="matrix(8.8194444,0,0,8.8194444,-11.382305,6.2150088)"><path
         d="m 4,7 8,-4 8,4 C 20,12.1932 17.2157,19.5098 12,21 6.78428,19.5098 4,12.1932 4,7 Z"
         stroke="#000000"
         stroke-width="1.5"
         stroke-linecap="round"
         stroke-linejoin="round"
         id="path1100"
         style="stroke-width:0.70628032;stroke-dasharray:none" /><g
         id="g2323"
         transform="matrix(0.11338583,0,0,0.11338583,-9.1722582,21.150044)"
         style="stroke-width:3.7;stroke-dasharray:none"><g
           style="fill:none;stroke:#000000;stroke-width:0.975582;stroke-linecap:round;stroke-linejoin:round;stroke-dasharray:none"
           id="g1954"
           transform="matrix(4.0328564,0,0,3.5666751,60.113147,108.55006)"><path
             d="m 30.41309,-64.85832 a 2,2 0 0 0 -2,2 v 5 h -5 a 2,2 0 0 0 -2,2 v 2 c 0,1.1 0.9,2 2,2 h 5 v 5 c 0,1.1 0.9,2 2,2 h 2 a 2,2 0 0 0 2,-2 v -5 h 5 a 2,2 0 0 0 2,-2 v -2 a 2,2 0 0 0 -2,-2 h -5 v -5 a 2,2 0 0 0 -2,-2 z"
             id="path1945"
             style="stroke-width:0.975582;stroke-dasharray:none" /></g></g></g></g></svg>
