<?xml version="1.0" encoding="UTF-8" standalone="no"?>
<!-- Created with Inkscape (http://www.inkscape.org/) -->

<svg
  
   viewBox="0 0 15.577415 10.953786"
   version="1.1"
   id="svg5991"
   xml:space="preserve"
   inkscape:version="1.2 (dc2aedaf03, 2022-05-15)"
   sodipodi:docname="speed.svg"
   xmlns:inkscape="http://www.inkscape.org/namespaces/inkscape"
   xmlns:sodipodi="http://sodipodi.sourceforge.net/DTD/sodipodi-0.dtd"
   xmlns="http://www.w3.org/2000/svg"
   xmlns:svg="http://www.w3.org/2000/svg"><sodipodi:namedview
     id="namedview5993"
     pagecolor="#505050"
     bordercolor="#eeeeee"
     borderopacity="1"
     inkscape:showpageshadow="0"
     inkscape:pageopacity="0"
     inkscape:pagecheckerboard="0"
     inkscape:deskcolor="#505050"
     inkscape:document-units="mm"
     showgrid="false"
     inkscape:zoom="4.1676048"
     inkscape:cx="-11.757353"
     inkscape:cy="13.077056"
     inkscape:window-width="1920"
     inkscape:window-height="1002"
     inkscape:window-x="-8"
     inkscape:window-y="-8"
     inkscape:window-maximized="1"
     inkscape:current-layer="g6880" /><defs
     id="defs5988" /><g
     inkscape:label="Layer 1"
     inkscape:groupmode="layer"
     id="layer1"
     transform="translate(-133.97679,-139.45402)"><g
       id="g7707"
       transform="translate(7.8110641,24.779927)" /><g
       id="g6880"
       transform="translate(33.976784,9.3295485)"
       style="fill:#000000;fill-opacity:0;stroke:#feef88;stroke-opacity:1"><path
         id="path6882"
         style="fill:#ffffff;fill-opacity:1;stroke:#feef88;stroke-width:0.264583;stroke-opacity:1"
         d="m 104.96047,130.25676 -0.47904,0.52917 -0.47904,0.52917 h 2.91042 2.91041 l 0.47904,-0.52917 0.47905,-0.52917 h -2.91042 z m 7.40834,0 -0.47905,0.52917 -0.47904,0.52917 h 1.45521 1.45521 l 0.47904,-0.52917 0.47904,-0.52917 h -1.45521 z m -9.26042,1.85209 -0.47904,0.52916 -0.47904,0.52917 h 2.91041 2.91042 l 0.47904,-0.52917 0.47904,-0.52916 h -2.91041 z m 7.40833,0 -0.47904,0.52916 -0.47904,0.52917 h 1.45521 1.45521 l 0.47904,-0.52917 0.47904,-0.52916 h -1.45521 z m -9.26041,1.85208 -0.47905,0.52917 -0.47904,0.52916 h 2.91042 2.91042 l 0.47904,-0.52916 0.47904,-0.52917 h -2.91042 z m 7.40833,0 -0.47904,0.52917 -0.47904,0.52916 h 1.45521 1.4552 l 0.47904,-0.52916 0.47905,-0.52917 h -1.45521 z m -8.36642,2.11667 0.47904,0.52916 0.47905,0.52917 h 2.91041 2.91042 l -0.47904,-0.52917 -0.47904,-0.52916 h -2.91042 z m 7.40834,0 0.47904,0.52916 0.47904,0.52917 h 1.45521 1.45521 l -0.47905,-0.52917 -0.47904,-0.52916 h -1.4552 z m 1.87585,1.85208 0.62425,0.52038 0.62477,0.51987 1.2976,0.009 1.29811,0.009 -0.47904,-0.52916 -0.47904,-0.52917 h -1.44333 z m -7.4321,5.2e-4 0.47904,0.52916 0.47904,0.52917 h 2.91042 2.91041 l -0.47904,-0.52917 -0.47904,-0.52916 h -2.91042 z m 7.67291,1.85156 -2.93522,0.009 -2.93574,0.009 0.62477,0.52038 0.62425,0.51987 h 2.79001 2.79002 l -0.47905,-0.52917 z" /><path
         id="path7345"
         style="fill:#ffffff;fill-opacity:1;stroke:#feef88;stroke-width:0.264583;stroke-opacity:1"
         d="m 112.61065,139.88511 -1.44384,5.2e-4 0.62477,0.52038 0.62477,0.51987 1.29759,0.009 1.2976,0.009 -0.47853,-0.52916 -0.47904,-0.52917 z" /></g></g></svg>
