<?xml version="1.0" encoding="UTF-8" standalone="no"?>
<!-- Created with Inkscape (http://www.inkscape.org/) -->

<svg

   viewBox="0 0 181.05927 140.31385"
   version="1.1"
   id="svg5"
   xml:space="preserve"
   inkscape:version="1.2 (dc2aedaf03, 2022-05-15)"
   sodipodi:docname="speed.svg"
   xmlns:inkscape="http://www.inkscape.org/namespaces/inkscape"
   xmlns:sodipodi="http://sodipodi.sourceforge.net/DTD/sodipodi-0.dtd"
   xmlns="http://www.w3.org/2000/svg"
   xmlns:svg="http://www.w3.org/2000/svg"><sodipodi:namedview
     id="namedview7"
     pagecolor="#505050"
     bordercolor="#eeeeee"
     borderopacity="1"
     inkscape:showpageshadow="0"
     inkscape:pageopacity="0"
     inkscape:pagecheckerboard="0"
     inkscape:deskcolor="#505050"
     inkscape:document-units="mm"
     showgrid="false"
     inkscape:zoom="0.73673541"
     inkscape:cx="-177.81146"
     inkscape:cy="174.41811"
     inkscape:window-width="1920"
     inkscape:window-height="1002"
     inkscape:window-x="-8"
     inkscape:window-y="-8"
     inkscape:window-maximized="1"
     inkscape:current-layer="layer1" /><defs
     id="defs2" /><g
     inkscape:label="Layer 1"
     inkscape:groupmode="layer"
     id="layer1"
     transform="translate(-192.61838,-73.148529)"><path
       style="fill:#020202;fill-opacity:0;stroke:#000000;stroke-width:4.553;stroke-dasharray:none;stroke-opacity:1"
       d="m 250.78327,76.255754 c -1.78364,0.76708 -1.44991,2.82858 -0.97014,4.32425 0.9197,2.86798 2.62538,5.79656 2.92841,8.81944 0.23778,2.36785 -0.66851,5.08247 -1.08796,7.40834 -0.32456,1.79846 -1.15888,4.167356 0.87594,5.281776 3.27696,1.79494 10.72021,0.36266 14.44308,0.36266 h 37.04166 10.93613 c 1.44392,0 3.59339,0.38594 4.89196,-0.36266 1.97097,-1.13629 1.09432,-3.869256 0.75248,-5.634556 -1.26436,-6.53274 0.0335,-10.03286 1.98967,-16.22778 0.4953,-1.5681 0.45825,-3.25515 -1.29964,-3.97147 -4.11056,-1.67513 -11.4226,-0.26186 -15.85948,-0.26186 h -37.04167 -11.99444 c -1.67852,0 -4.03508,-0.41381 -5.606,0.26186 m 7.05556,33.967456 c -2.28141,1.28411 -1.92652,11.15836 0.10054,12.65837 1.37725,1.01918 3.55106,0.96802 5.15267,1.45662 2.48885,0.75988 4.78967,2.1523 6.68902,3.92818 3.44347,3.21945 5.42502,7.92551 7.77875,11.93306 4.60693,7.84402 9.15741,15.7293 13.65532,23.63611 2.50755,4.40761 6.25934,9.12848 6.08119,14.46389 -0.28187,8.42328 -8.38976,14.75141 -16.56539,13.29196 -2.83316,-0.50553 -5.43948,-3.54506 -8.11389,-3.61138 -2.026,-0.0505 -4.19135,1.81963 -5.99722,2.58515 -1.772,0.75071 -5.22852,0.87419 -6.28685,2.63031 -1.66159,2.75696 -0.38982,9.87531 0.002,12.97341 0.29175,2.30505 1.86161,4.05341 4.16807,4.47004 6.19866,1.11902 13.45354,0.11607 19.75556,0.11607 h 61.73612 16.22778 c 2.26695,0 5.07576,0.43074 7.04003,-0.95356 2.29447,-1.61678 2.13219,-4.31341 2.13219,-6.80755 0,-5.59823 0.15734,-11.06946 -2.38337,-16.22778 -6.87599,-13.96048 -26.96245,-17.88866 -40.30274,-23.48653 -3.6001,-1.5106 -11.49033,-3.05259 -13.84935,-6.22618 -1.95545,-2.63031 -0.37641,-10.21715 -0.01,-13.32618 0.91123,-7.72442 0.97332,-15.85807 1.16417,-23.63611 0.0646,-2.63772 1.16099,-6.25757 0.13476,-8.79863 -1.14864,-2.8441 -10.55688,-1.43193 -13.19284,-1.43193 H 270.4998 c -3.26955,0 -9.79241,-1.25236 -12.66155,0.36266 m -9.56345,69.13457 c 2.34209,8.32061 14.72953,5.0747 19.75555,2.21579 1.6951,-0.96414 3.98533,-2.98485 5.99722,-3.05576 1.91065,-0.0674 2.92841,2.07116 3.99521,3.30412 1.40617,1.62489 3.02895,2.44122 5.17702,2.46803 3.26354,0.0413 5.94607,-2.01295 6.53626,-5.28496 0.47378,-2.6289 -1.00153,-4.87998 -2.25001,-7.05556 -2.43593,-4.24356 -4.94383,-8.4462 -7.36212,-12.7 -3.35527,-5.90162 -6.80473,-11.74961 -10.18117,-17.63889 -1.63865,-2.8582 -3.10762,-6.51721 -5.80672,-8.5411 -3.48404,-2.61267 -8.86778,-2.81552 -13.03902,-3.54154 -8.60002,-1.49683 -17.15276,-3.26566 -25.75278,-4.7625 -6.94789,-1.20932 -13.88162,-2.5347 -20.81388,-3.83152 -2.26544,-0.42368 -5.77297,-1.76988 -7.56458,0.26776 -4.33306,4.92831 -1.06496,13.53573 2.375,17.93946 8.63212,11.05041 23.48428,10.77489 36.23402,10.2168 3.48368,-0.15276 11.87062,-3.04871 13.99892,0.75247 2.15548,3.84951 -2.85573,5.24686 -5.53226,5.74851 -6.19971,1.1617 -12.74374,1.77589 -19.05,1.62137 -1.74371,-0.0427 -5.69457,-1.3589 -5.91202,1.42311 -0.18285,2.33927 1.51204,5.20347 2.76997,7.04885 6.63773,9.73773 19.16875,8.81027 28.89483,5.21123 2.87479,-1.06397 7.59037,-4.6362 10.58333,-4.3882 3.44206,0.2854 3.67348,4.20158 1.39559,6.01768 -4.1656,3.32105 -9.46608,4.9717 -14.44836,6.56485 z"
       id="path6399"
       inkscape:label="path6399" /></g></svg>
